<svg xmlns="http://www.w3.org/2000/svg" role="img" height="40" width="40" viewBox="0 0 500 500">
    <defs>
        <path fill="currentColor" id="path-0" d="M 202.904 257.786 C 278.447 271.642 287.762 269.955 297.492 268.736 C 302.452 266.568 305.65 266.494 305.65 261.865"/>
        <path fill="currentColor" id="path-1" d="M 202.194 259.449 C 213.863 259.449 219.556 259.766 225.277 259.766 C 229.206 259.766 232.268 259.766 235.331 259.766 C 239.807 259.766 242.768 259.766 245.728 259.766 C 250.098 259.766 253.344 259.982 256.648 259.982 C 261.112 259.982 264.493 259.982 267.874 259.982 C 271.918 259.982 275.094 259.982 278.271 259.982 L 278.921 259.982 C 283.602 259.982 288.283 259.982 292.964 259.982"/>
    </defs>
    <g style="pointer-events: none;" transform="matrix(1.669747, 0, 0, 1.802531, -167.437103, -200.629471)">
        <path fill="currentColor" d="M 330 250 C 330 294.183 294.183 330 250 330 C 205.817 330 170 294.183 170 250 C 170 205.817 205.817 170 250 170 C 294.183 170 330 205.817 330 250 Z M 183.195 228.352 L 195.255 228.352 L 195.255 268.552 L 206.595 268.552 L 206.595 228.352 L 218.575 228.352 L 218.575 219.282 L 183.195 219.282 Z M 258.809 248.372 L 258.809 239.462 L 241.849 239.462 L 241.849 228.272 L 260.859 228.272 L 260.859 219.282 L 230.519 219.282 L 230.519 268.552 L 261.149 268.552 L 261.149 259.562 L 241.849 259.562 L 241.849 248.372 Z M 286.103 268.552 C 286.69 267.479 288.007 265.152 290.053 261.572 C 292.1 257.992 293.66 255.202 294.733 253.202 L 303.643 268.552 L 317.023 268.552 L 301.163 243.622 L 316.073 219.282 L 302.333 219.282 C 301.7 220.502 300.48 222.755 298.673 226.042 C 296.873 229.335 295.487 231.882 294.513 233.682 L 286.323 219.282 L 273.233 219.282 L 288.073 243.552 L 272.503 268.552 Z"/>
    </g>
    <path fill="currentColor" d="M 385 37.13 C 385 49.352 375.822 59.26 364.5 59.26 C 357.128 59.26 350.665 55.059 347.053 48.754 C 296.283 74.099 238.422 115.259 183.429 166.128 C 5.998 330.253 -49.419 502.725 83.677 476.575 C 145.449 464.44 234.229 410.041 316.573 333.869 C 494.003 169.746 549.419 -2.726 416.321 23.424 C 406.382 25.376 395.744 28.422 384.546 32.478 C 384.844 33.978 385 35.534 385 37.13 Z M 344 37.13 C 344 24.908 353.179 15 364.5 15 C 372.48 15 379.395 19.922 382.782 27.108 C 467.683 -5.612 518.7 16.52 491.176 102.261 C 469.887 168.584 404.245 258.029 318.98 336.901 C 135.257 506.848 -37.05 540.643 8.822 397.735 C 30.116 331.411 95.759 241.967 181.023 163.097 C 239.003 109.465 295.847 69.392 345.054 44.154 C 344.37 41.947 344 39.585 344 37.13 Z M 356.273 35.312 C 356.173 35.685 356.066 36.075 355.953 36.482 C 355.833 36.882 355.71 37.285 355.583 37.692 C 355.463 38.092 355.336 38.472 355.203 38.832 C 355.103 38.459 355.003 38.052 354.903 37.612 C 354.803 37.172 354.706 36.719 354.613 36.252 C 354.513 35.779 354.42 35.309 354.333 34.842 C 354.246 34.382 354.166 33.935 354.093 33.502 L 352.233 33.502 C 352.486 34.775 352.783 36.069 353.123 37.382 C 353.456 38.695 353.816 39.942 354.203 41.122 L 355.773 41.122 C 356.033 40.415 356.28 39.675 356.513 38.902 C 356.746 38.129 356.98 37.355 357.213 36.582 C 357.446 37.355 357.686 38.129 357.933 38.902 C 358.173 39.675 358.423 40.415 358.683 41.122 L 360.253 41.122 C 360.64 39.942 361 38.695 361.333 37.382 C 361.666 36.069 361.963 34.775 362.223 33.502 L 360.443 33.502 C 360.37 33.935 360.29 34.382 360.203 34.842 C 360.116 35.309 360.03 35.779 359.943 36.252 C 359.856 36.719 359.763 37.172 359.663 37.612 C 359.563 38.052 359.466 38.459 359.373 38.832 C 359.253 38.492 359.133 38.119 359.013 37.712 C 358.886 37.312 358.763 36.909 358.643 36.502 C 358.523 36.102 358.41 35.712 358.303 35.332 C 358.196 34.952 358.096 34.612 358.003 34.312 L 356.543 34.312 C 356.463 34.605 356.373 34.939 356.273 35.312 Z M 369.421 39.682 L 365.741 39.682 L 365.741 37.842 L 368.781 37.842 L 368.781 36.432 L 365.741 36.432 L 365.741 34.942 L 369.171 34.942 L 369.171 33.502 L 364.021 33.502 L 364.021 41.122 L 369.421 41.122 Z M 376.526 40.612 C 377.113 40.212 377.406 39.612 377.406 38.812 C 377.406 38.419 377.316 38.062 377.136 37.742 C 376.963 37.429 376.633 37.179 376.146 36.992 C 376.733 36.645 377.026 36.165 377.026 35.552 C 377.026 35.152 376.946 34.815 376.786 34.542 C 376.62 34.262 376.39 34.039 376.096 33.872 C 375.803 33.705 375.453 33.585 375.046 33.512 C 374.64 33.445 374.193 33.412 373.706 33.412 C 373.346 33.412 372.956 33.429 372.536 33.462 C 372.123 33.495 371.74 33.545 371.386 33.612 L 371.386 41.002 C 371.833 41.095 372.263 41.155 372.676 41.182 C 373.09 41.209 373.506 41.222 373.926 41.222 C 375.08 41.222 375.946 41.019 376.526 40.612 Z M 375.266 38.022 C 375.533 38.175 375.666 38.429 375.666 38.782 C 375.666 39.175 375.51 39.445 375.196 39.592 C 374.876 39.739 374.46 39.812 373.946 39.812 C 373.773 39.812 373.613 39.809 373.466 39.802 C 373.32 39.795 373.183 39.785 373.056 39.772 L 373.056 37.802 L 374.136 37.802 C 374.63 37.802 375.006 37.875 375.266 38.022 Z M 373.506 34.802 C 373.68 34.802 373.84 34.802 373.986 34.802 C 374.44 34.802 374.783 34.862 375.016 34.982 C 375.25 35.109 375.366 35.325 375.366 35.632 C 375.366 35.932 375.253 36.152 375.026 36.292 C 374.8 36.425 374.423 36.492 373.896 36.492 L 373.056 36.492 L 373.056 34.832 C 373.19 34.819 373.34 34.809 373.506 34.802 Z"/>
    <path fill="currentColor" d="M 353.293 97.426 C 353.293 101.456 351.618 105.2 348.981 107.837 C 346.344 110.474 342.6 112.149 338.57 112.149 C 334.54 112.149 330.796 110.474 328.159 107.837 C 325.522 105.2 323.847 101.456 323.847 97.426 C 323.847 93.396 325.522 89.652 328.159 87.015 C 330.796 84.378 334.54 82.703 338.57 82.703 C 342.6 82.703 346.344 84.378 348.981 87.015 C 351.618 89.652 353.293 93.396 353.293 97.426 Z M 348.274 87.722 C 345.763 85.212 342.395 83.703 338.57 83.703 C 334.745 83.703 331.377 85.212 328.866 87.722 C 326.356 90.233 324.847 93.601 324.847 97.426 C 324.847 101.251 326.356 104.619 328.866 107.13 C 331.377 109.64 334.745 111.149 338.57 111.149 C 342.395 111.149 345.763 109.64 348.274 107.13 C 350.784 104.619 352.293 101.251 352.293 97.426 C 352.293 93.601 350.784 90.233 348.274 87.722 Z" transform="matrix(1.291373, 0, 0, 1.394067, -72.843552, -98.513878)"/>
</svg>